<svg width="32" height="32" viewBox="0 0 32 32" fill="none" xmlns="http://www.w3.org/2000/svg">
  <!-- House Shape -->
  <path d="M4 12L16 2L28 12V28H4V12Z" fill="#3B82F6"/>
  <path d="M12 28V18H20V28H12Z" fill="#BFDBFE"/>

  <!-- Wifi Signal -->
  <g fill="#FFFFFF">
    <!-- Outer arc -->
    <path d="M16 20C20.4183 20 24 16.4183 24 12H22C22 15.3137 19.3137 18 16 18C12.6863 18 10 15.3137 10 12H8C8 16.4183 11.5817 20 16 20Z"/>
    <!-- Middle arc -->
    <path d="M16 16C18.2091 16 20 14.2091 20 12H18C18 13.1046 17.1046 14 16 14C14.8954 14 14 13.1046 14 12H12C12 14.2091 13.7909 16 16 16Z"/>
    <!-- Inner dot -->
    <circle cx="16" cy="12" r="2"/>
  </g>
</svg>
