<svg xmlns="http://www.w3.org/2000/svg" width="24" height="24" viewBox="0 0 24 24" fill="none" stroke="hsl(231 48% 48%)" stroke-width="2" stroke-linecap="round" stroke-linejoin="round">
    <path d="M2 18.2c0 1 1 1.8 2 1.8h16a2 2 0 0 0 2-1.8V12.6A2 2 0 0 0 20 11h-2a2 2 0 0 0-2 2v2H8v-2a2 2 0 0 0-2-2H4a2 2 0 0 0-2 1.4Z"/>
    <path d="m12 2-4.4 4.4A1.2 1.2 0 0 0 8.5 8H11a1 1 0 0 1 1 1v2a1 1 0 0 1-1 1H7.5a1.2 1.2 0 0 0-1.1.9L2 20"/>
    <path d="m12 2 4.4 4.4A1.2 1.2 0 0 1 15.5 8H13a1 1 0 0 0-1 1v2a1 1 0 0 0 1 1h4.5a1.2 1.2 0 0 1 1.1.9L22 20"/>
</svg>